<svg width="24" height="24" viewBox="0 0 24 24" fill="none" xmlns="http://www.w3.org/2000/svg">
<path fill-rule="evenodd" clip-rule="evenodd" d="M9.85958 14.0891C9.91366 14.4998 9.62459 14.8765 9.21392 14.9306C7.49238 15.1573 6.0579 15.5819 5.07758 16.1036C4.04382 16.6537 3.75 17.1733 3.75 17.5C3.75 17.7025 3.85256 17.9772 4.21485 18.3103C4.57778 18.644 5.14435 18.979 5.90772 19.2759C7.42968 19.8678 9.58331 20.25 12 20.25C14.4167 20.25 16.5703 19.8678 18.0923 19.2759C18.8556 18.979 19.4222 18.644 19.7852 18.3103C20.1474 17.9772 20.25 17.7025 20.25 17.5C20.25 17.1733 19.9562 16.6537 18.9224 16.1036C17.9421 15.5819 16.5076 15.1573 14.7861 14.9306C14.3754 14.8765 14.0863 14.4998 14.1404 14.0891C14.1945 13.6784 14.5712 13.3893 14.9819 13.4434C16.8144 13.6847 18.4379 14.1466 19.6271 14.7794C20.7628 15.3838 21.75 16.2867 21.75 17.5C21.75 18.264 21.3489 18.9101 20.8004 19.4144C20.2526 19.9182 19.5012 20.3374 18.636 20.6739C16.9007 21.3487 14.5543 21.75 12 21.75C9.44569 21.75 7.09932 21.3487 5.36403 20.6739C4.49877 20.3374 3.74741 19.9182 3.19956 19.4144C2.65106 18.9101 2.25 18.264 2.25 17.5C2.25 16.2867 3.23718 15.3838 4.37292 14.7794C5.5621 14.1466 7.18562 13.6847 9.01808 13.4434C9.42875 13.3893 9.8055 13.6784 9.85958 14.0891Z" fill="#007500"/>
<path fill-rule="evenodd" clip-rule="evenodd" d="M5.25 7.833C5.25 4.17803 8.29182 1.25 12 1.25C15.7082 1.25 18.75 4.17803 18.75 7.833C18.75 9.09267 18.3204 10.3358 17.7256 11.4615C17.1284 12.5917 16.341 13.6477 15.5687 14.546C14.7947 15.4465 14.0228 16.2034 13.4454 16.7348C13.1561 17.0009 12.9144 17.2117 12.7438 17.3568C12.6585 17.4294 12.5909 17.4856 12.544 17.5242C12.5205 17.5435 12.5022 17.5584 12.4894 17.5688L12.4745 17.5809L12.4688 17.5854C12.4687 17.5855 12.468 17.586 12 17C11.532 17.586 11.5318 17.5859 11.5316 17.5858L11.5255 17.5809L11.5106 17.5688C11.4978 17.5584 11.4795 17.5435 11.456 17.5242C11.4091 17.4856 11.3415 17.4294 11.2562 17.3568C11.0856 17.2117 10.8439 17.0009 10.5546 16.7348C9.97716 16.2034 9.20533 15.4465 8.43127 14.546C7.65903 13.6477 6.87165 12.5917 6.27439 11.4615C5.67956 10.3358 5.25 9.09267 5.25 7.833ZM12 17L11.5316 17.5858C11.8054 17.8044 12.1943 17.8047 12.468 17.586L12 17ZM12 16.0171C12.124 15.9084 12.2688 15.779 12.4296 15.631C12.9772 15.1272 13.7053 14.4127 14.4313 13.5682C15.159 12.7216 15.8716 11.7593 16.3994 10.7606C16.9296 9.75733 17.25 8.76083 17.25 7.833C17.25 5.04597 14.9198 2.75 12 2.75C9.08018 2.75 6.75 5.04597 6.75 7.833C6.75 8.76083 7.07044 9.75733 7.60061 10.7606C8.12835 11.7593 8.84097 12.7216 9.56873 13.5682C10.2947 14.4127 11.0228 15.1272 11.5704 15.631C11.7312 15.779 11.876 15.9084 12 16.0171Z" fill="#007500"/>
<path fill-rule="evenodd" clip-rule="evenodd" d="M12.8839 7.11612C12.3957 6.62796 11.6043 6.62796 11.1161 7.11612C10.628 7.60427 10.628 8.39573 11.1161 8.88389C11.6043 9.37204 12.3957 9.37204 12.8839 8.88389C13.372 8.39573 13.372 7.60427 12.8839 7.11612ZM13.9437 6.0546C12.8697 4.98151 11.1291 4.9818 10.0555 6.05546L10.0555 6.05546C8.98151 7.1294 8.98151 8.8706 10.0555 9.94455C11.1294 11.0185 12.8706 11.0185 13.9445 9.94455C15.0185 8.8706 15.0185 7.1294 13.9445 6.05546C13.9443 6.05517 13.944 6.05488 13.9437 6.0546Z" fill="#007500"/>
</svg>
