<?xml version="1.0" standalone="no"?>
<!DOCTYPE svg PUBLIC "-//W3C//DTD SVG 20010904//EN"
 "http://www.w3.org/TR/2001/REC-SVG-20010904/DTD/svg10.dtd">
<svg version="1.0" xmlns="http://www.w3.org/2000/svg"
 width="30.000000pt" height="30.000000pt" viewBox="0 0 30.000000 30.000000"
 preserveAspectRatio="xMidYMid meet">

<g transform="translate(0.000000,30.000000) scale(0.100000,-0.100000)"
fill="#000000" stroke="none">
<path d="M190 236 c0 -2 7 -17 15 -32 19 -37 19 -77 -1 -116 -12 -23 -13 -29
-2 -26 18 6 38 48 38 81 0 34 -25 97 -39 97 -6 0 -11 -2 -11 -4z"/>
<path d="M86 211 c-10 -11 -32 -21 -50 -23 -28 -3 -31 -6 -31 -38 0 -31 3 -35
30 -38 17 -2 40 -13 53 -25 l22 -20 0 81 c0 45 -2 82 -3 82 -2 0 -12 -9 -21
-19z"/>
<path d="M145 194 c15 -37 17 -62 5 -84 -10 -18 -9 -21 2 -18 34 12 34 104 -1
116 -11 4 -12 0 -6 -14z"/>
</g>
</svg>
